<svg width="19" height="19" viewBox="0 0 19 19" fill="none" xmlns="http://www.w3.org/2000/svg">
<path fill-rule="evenodd" clip-rule="evenodd" d="M13.3333 0.242676H5.33325C2.57183 0.242676 0.333252 2.48126 0.333252 5.24268V13.2427C0.333252 16.0041 2.57183 18.2427 5.33325 18.2427H13.3333C16.0947 18.2427 18.3333 16.0041 18.3333 13.2427V5.24268C18.3333 2.48126 16.0947 0.242676 13.3333 0.242676ZM16.5833 13.2427C16.5778 15.0353 15.1259 16.4872 13.3333 16.4927H5.33325C3.5406 16.4872 2.08874 15.0353 2.08325 13.2427V5.24268C2.08874 3.45003 3.5406 1.99817 5.33325 1.99268H13.3333C15.1259 1.99817 16.5778 3.45003 16.5833 5.24268V13.2427ZM14.0833 5.49268C14.6356 5.49268 15.0833 5.04496 15.0833 4.49268C15.0833 3.9404 14.6356 3.49268 14.0833 3.49268C13.531 3.49268 13.0833 3.9404 13.0833 4.49268C13.0833 5.04496 13.531 5.49268 14.0833 5.49268ZM9.33325 4.74268C6.84797 4.74268 4.83325 6.7574 4.83325 9.24268C4.83325 11.728 6.84797 13.7427 9.33325 13.7427C11.8186 13.7427 13.8333 11.728 13.8333 9.24268C13.836 8.04838 13.3627 6.90225 12.5182 6.05776C11.6737 5.21327 10.5276 4.74002 9.33325 4.74268ZM6.58325 9.24268C6.58325 10.7615 7.81445 11.9927 9.33325 11.9927C10.8521 11.9927 12.0833 10.7615 12.0833 9.24268C12.0833 7.72388 10.8521 6.49268 9.33325 6.49268C7.81445 6.49268 6.58325 7.72388 6.58325 9.24268Z" fill="#040404"/>
</svg>
