<svg width="19" height="19" viewBox="0 0 19 19" fill="none" xmlns="http://www.w3.org/2000/svg">
<path fill-rule="evenodd" clip-rule="evenodd" d="M1.83325 0.242676C1.00482 0.242676 0.333252 0.914246 0.333252 1.74268V16.7427C0.333252 17.5711 1.00482 18.2427 1.83325 18.2427H16.8333C17.6617 18.2427 18.3333 17.5711 18.3333 16.7427V1.74268C18.3333 0.914246 17.6617 0.242676 16.8333 0.242676H1.83325ZM5.85401 4.2454C5.85964 5.20165 5.14386 5.79087 4.29448 5.78665C3.49432 5.78243 2.79682 5.1454 2.80104 4.24681C2.80526 3.40165 3.47323 2.72243 4.34089 2.74212C5.2212 2.76181 5.85964 3.40728 5.85401 4.2454ZM9.61295 7.00444H7.09296H7.09155V15.5643H9.75495V15.3646C9.75495 14.9847 9.75465 14.6047 9.75435 14.2246C9.75355 13.2108 9.75265 12.1959 9.75785 11.1824C9.75925 10.9363 9.77045 10.6804 9.83375 10.4455C10.0714 9.56798 10.8604 9.00128 11.7407 9.14058C12.306 9.22908 12.68 9.55678 12.8375 10.0898C12.9346 10.423 12.9782 10.7816 12.9824 11.129C12.9938 12.1766 12.9922 13.2242 12.9906 14.2719C12.99 14.6417 12.9894 15.0117 12.9894 15.3815V15.5629H15.6613V15.3576C15.6613 14.9056 15.6611 14.4537 15.6608 14.0018C15.6603 12.8723 15.6597 11.7428 15.6627 10.6129C15.6641 10.1024 15.6093 9.59898 15.4841 9.10538C15.2971 8.37128 14.9104 7.76378 14.2818 7.32508C13.836 7.01287 13.3466 6.81178 12.7996 6.78928C12.7373 6.78669 12.6745 6.7833 12.6114 6.77989C12.3317 6.76477 12.0474 6.74941 11.78 6.80334C11.015 6.95662 10.3429 7.30678 9.83515 7.92408C9.77615 7.99488 9.71845 8.06678 9.63235 8.17408L9.61295 8.19838V7.00444ZM3.01489 15.5671H5.66567V7.01001H3.01489V15.5671Z" fill="#040404"/>
</svg>
