<svg width="21" height="15" viewBox="0 0 21 15" fill="none" xmlns="http://www.w3.org/2000/svg">
<path d="M19.9262 2.20301C19.8123 1.78041 19.5897 1.39501 19.2806 1.08518C18.9714 0.775338 18.5866 0.551868 18.1642 0.437007C16.5982 0.00700739 10.3332 7.59651e-06 10.3332 7.59651e-06C10.3332 7.59651e-06 4.06922 -0.00699261 2.50222 0.404007C2.08014 0.524154 1.69604 0.750785 1.38678 1.06214C1.07753 1.3735 0.853501 1.75913 0.736216 2.18201C0.323216 3.74801 0.319215 6.99601 0.319215 6.99601C0.319215 6.99601 0.315215 10.26 0.725215 11.81C0.955215 12.667 1.63022 13.344 2.48822 13.575C4.07022 14.005 10.3182 14.012 10.3182 14.012C10.3182 14.012 16.5832 14.019 18.1492 13.609C18.5717 13.4943 18.957 13.2714 19.2669 12.9622C19.5768 12.653 19.8006 12.2682 19.9162 11.846C20.3302 10.281 20.3332 7.03401 20.3332 7.03401C20.3332 7.03401 20.3532 3.76901 19.9262 2.20301ZM8.32922 10.005L8.33422 4.00501L13.5412 7.01001L8.32922 10.005Z" fill="#040404"/>
</svg>
